<svg role="img" viewBox="0 0 24 24" xmlns="http://www.w3.org/2000/svg"><title>Amazon</title><path d="M.045 18.02c.072-.116.187-.124.348-.022 2.344 1.474 4.882 2.21 7.613 2.21 1.965 0 3.928-.448 5.89-1.345.223-.101.4-.148.53-.148.192 0 .327.11.405.328.054.148.072.263.072.347 0 .308-.18.588-.543.84a11.856 11.856 0 0 1-6.354 1.823c-3.005 0-5.66-.78-7.96-2.34-.163-.112-.208-.262-.128-.44l.127-.253zM6.093 15.03c.066-.202.2-.3.397-.3.108 0 .233.037.378.112a7.525 7.525 0 0 0 3.24.75c1.176 0 2.34-.313 3.49-.94.108-.058.2-.087.272-.087.194 0 .305.128.305.384 0 .18-.087.384-.262.614a4.063 4.063 0 0 1-3.624 1.822c-1.296 0-2.498-.42-3.608-1.26-.186-.138-.272-.29-.263-.456a.717.717 0 0 1 .053-.22l-.178-.419zm8.447-11.57c0-.706.18-1.305.538-1.797a3.425 3.425 0 0 1 1.45-1.172 4.634 4.634 0 0 1 2.005-.44c.756 0 1.46.17 2.117.51.656.34.96.73.96 1.168 0 .327-.12.584-.36.768a1.205 1.205 0 0 1-.757.277c-.173 0-.394-.08-.664-.24-.397-.236-.83-.354-1.296-.354-.615 0-1.082.184-1.397.554-.316.37-.474.89-.474 1.56v1.083h2.79c.318 0 .558.08.722.24.163.16.244.39.244.69s-.08.53-.244.69c-.164.16-.404.24-.722.24h-2.79v7.404c0 .328-.085.578-.254.754a.906.906 0 0 1-.695.262.88.88 0 0 1-.675-.262c-.17-.176-.254-.427-.254-.754V7.168h-1.553c-.318 0-.557-.08-.72-.24-.163-.16-.245-.39-.245-.69s.082-.53.245-.69c.163-.16.402-.24.72-.24h1.554V3.46z"/></svg>
