<svg role="img" viewBox="0 0 24 24" xmlns="http://www.w3.org/2000/svg">
  <title>Toyota</title>
  <defs>
    <linearGradient id="metallic" x1="0%" y1="0%" x2="0%" y2="100%">
      <stop offset="0%" style="stop-color:#FFFFFF"/>
      <stop offset="20%" style="stop-color:#E0E0E0"/>
      <stop offset="45%" style="stop-color:#F8F8F8"/>
      <stop offset="55%" style="stop-color:#C0C0C0"/>
      <stop offset="80%" style="stop-color:#A0A0A0"/>
      <stop offset="100%" style="stop-color:#707070"/>
    </linearGradient>
    <filter id="shadow" x="-20%" y="-20%" width="140%" height="140%">
      <feDropShadow dx="0" dy="0.5" stdDeviation="0.3" flood-color="#000000" flood-opacity="0.4"/>
    </filter>
  </defs>
  <path fill="url(#metallic)" filter="url(#shadow)" d="M12 3.848C5.223 3.848 0 7.298 0 12c0 4.702 5.224 8.152 12 8.152S24 16.702 24 12c0-4.702-5.223-8.152-12-8.152zm7.334 3.839c0 1.08-1.725 1.913-4.488 2.246-.26-2.58-1.005-4.279-1.963-4.913 2.948.184 6.45 1.227 6.45 2.667zM12 16.401c-.96 0-1.746-1.5-1.808-4.389.577.047 1.18.072 1.808.072.628 0 1.23-.025 1.807-.072-.061 2.89-.847 4.389-1.807 4.389zm0-6.308c-.59 0-1.155-.019-1.69-.054.261-1.728.92-3.15 1.69-3.15.77 0 1.428 1.422 1.689 3.15-.535.034-1.099.054-1.689.054zm-.882-5.075c-.956.633-1.706 2.333-1.964 4.915C6.391 9.6 4.665 8.767 4.665 7.687c0-1.44 3.504-2.49 6.453-2.669zM2.037 11.68a5.265 5.265 0 011.048-3.164c.27 1.547 2.522 2.881 5.972 3.37V12c0 3.772.879 6.203 2.087 6.97-5.107-.321-9.107-3.48-9.107-7.29zm10.823 7.29c1.207-.767 2.087-3.198 2.087-6.97v-.115c3.447-.488 5.704-1.826 5.972-3.37a5.26 5.26 0 011.049 3.165c-.004 3.81-4.008 6.969-9.109 7.29z"/>
</svg>
