<svg xmlns="http://www.w3.org/2000/svg" width="32" height="32" viewBox="0 0 32 32">
  <defs>
    <linearGradient id="ig-gradient" x1="0%" y1="100%" x2="100%" y2="0%">
      <stop offset="0%" style="stop-color:#FFDC80"/>
      <stop offset="10%" style="stop-color:#FCAF45"/>
      <stop offset="35%" style="stop-color:#F77737"/>
      <stop offset="50%" style="stop-color:#F56040"/>
      <stop offset="65%" style="stop-color:#FD1D1D"/>
      <stop offset="85%" style="stop-color:#E1306C"/>
      <stop offset="100%" style="stop-color:#C13584"/>
    </linearGradient>
  </defs>
  <rect width="32" height="32" rx="6" fill="url(#ig-gradient)"/>
  <path fill="white" d="M16 9.5c-2.1 0-2.4 0-3.2.05-.8.04-1.4.17-1.9.36-.5.2-.9.46-1.3.9-.44.44-.7.84-.9 1.34-.19.5-.32 1.06-.36 1.9C8.5 14.8 8.5 15.1 8.5 17.2s0 2.4.05 3.2c.04.8.17 1.4.36 1.9.2.5.46.9.9 1.3.44.44.84.7 1.34.9.5.19 1.06.32 1.9.36.8.05 1.1.05 3.2.05s2.4 0 3.2-.05c.8-.04 1.4-.17 1.9-.36.5-.2.9-.46 1.3-.9.44-.44.7-.84.9-1.34.19-.5.32-1.06.36-1.9.05-.8.05-1.1.05-3.2s0-2.4-.05-3.2c-.04-.8-.17-1.4-.36-1.9-.2-.5-.46-.9-.9-1.3-.44-.44-.84-.7-1.34-.9-.5-.19-1.06-.32-1.9-.36-.8-.05-1.1-.05-3.2-.05zm0 1.4c2.07 0 2.32 0 3.14.05.76.03 1.18.16 1.46.27.37.14.63.32.9.6.28.28.46.54.6.9.11.28.24.7.27 1.46.04.82.05 1.07.05 3.14s0 2.32-.05 3.14c-.03.76-.16 1.18-.27 1.46-.14.37-.32.63-.6.9-.28.28-.54.46-.9.6-.28.11-.7.24-1.46.27-.82.04-1.07.05-3.14.05s-2.32 0-3.14-.05c-.76-.03-1.18-.16-1.46-.27-.37-.14-.63-.32-.9-.6-.28-.28-.46-.54-.6-.9-.11-.28-.24-.7-.27-1.46-.04-.82-.05-1.07-.05-3.14s0-2.32.05-3.14c.03-.76.16-1.18.27-1.46.14-.37.32-.63.6-.9.28-.28.54-.46.9-.6.28-.11.7-.24 1.46-.27.82-.04 1.07-.05 3.14-.05zm0 2.38a3.92 3.92 0 100 7.84 3.92 3.92 0 000-7.84zm0 6.47a2.55 2.55 0 110-5.1 2.55 2.55 0 010 5.1zm5-6.62a.92.92 0 11-1.84 0 .92.92 0 011.84 0z"/>
</svg>
