<svg xmlns="http://www.w3.org/2000/svg" width="32" height="32" viewBox="0 0 32 32">
  <defs>
    <linearGradient id="ig-gradient" x1="0%" y1="100%" x2="100%" y2="0%">
      <stop offset="0%" style="stop-color:#FFDC80"/>
      <stop offset="10%" style="stop-color:#FCAF45"/>
      <stop offset="30%" style="stop-color:#F77737"/>
      <stop offset="50%" style="stop-color:#F56040"/>
      <stop offset="70%" style="stop-color:#FD1D1D"/>
      <stop offset="80%" style="stop-color:#E1306C"/>
      <stop offset="90%" style="stop-color:#C13584"/>
      <stop offset="100%" style="stop-color:#833AB4"/>
    </linearGradient>
  </defs>
  <path fill="url(#ig-gradient)" d="M16 2.88c4.27 0 4.78.02 6.46.09 1.56.07 2.4.33 2.97.55.74.29 1.28.64 1.84 1.2.56.56.91 1.1 1.2 1.84.22.56.48 1.41.55 2.97.08 1.68.09 2.19.09 6.46s-.02 4.78-.09 6.46c-.07 1.56-.33 2.4-.55 2.97-.29.74-.64 1.28-1.2 1.84-.56.56-1.1.91-1.84 1.2-.56.22-1.41.48-2.97.55-1.68.08-2.19.09-6.46.09s-4.78-.02-6.46-.09c-1.56-.07-2.4-.33-2.97-.55-.74-.29-1.28-.64-1.84-1.2-.56-.56-.91-1.1-1.2-1.84-.22-.56-.48-1.41-.55-2.97-.08-1.68-.09-2.19-.09-6.46s.02-4.78.09-6.46c.07-1.56.33-2.4.55-2.97.29-.74.64-1.28 1.2-1.84.56-.56 1.1-.91 1.84-1.2.56-.22 1.41-.48 2.97-.55 1.68-.08 2.19-.09 6.46-.09M16 0c-4.35 0-4.89.02-6.6.1-1.7.08-2.86.35-3.88.75-1.05.41-1.94.96-2.83 1.85S1.26 4.47.85 5.52c-.4 1.02-.67 2.18-.75 3.88C.02 11.11 0 11.65 0 16s.02 4.89.1 6.6c.08 1.7.35 2.86.75 3.88.41 1.05.96 1.94 1.85 2.83s1.78 1.44 2.83 1.85c1.02.4 2.18.67 3.88.75 1.71.08 2.25.1 6.6.1s4.89-.02 6.6-.1c1.7-.08 2.86-.35 3.88-.75 1.05-.41 1.94-.96 2.83-1.85s1.44-1.78 1.85-2.83c.4-1.02.67-2.18.75-3.88.08-1.71.1-2.25.1-6.6s-.02-4.89-.1-6.6c-.08-1.7-.35-2.86-.75-3.88-.41-1.05-.96-1.94-1.85-2.83S27.53 1.26 26.48.85c-1.02-.4-2.18-.67-3.88-.75C20.89.02 20.35 0 16 0z"/>
  <path fill="url(#ig-gradient)" d="M16 7.78c-4.54 0-8.22 3.68-8.22 8.22s3.68 8.22 8.22 8.22 8.22-3.68 8.22-8.22-3.68-8.22-8.22-8.22zm0 13.55c-2.94 0-5.33-2.39-5.33-5.33s2.39-5.33 5.33-5.33 5.33 2.39 5.33 5.33-2.39 5.33-5.33 5.33z"/>
  <circle fill="url(#ig-gradient)" cx="24.54" cy="7.46" r="1.92"/>
</svg>
