<svg xmlns="http://www.w3.org/2000/svg" width="32" height="32" viewBox="0 0 32 32">
  <path fill="#0A66C2" d="M29.63 0H2.37C1.06 0 0 1.03 0 2.31v27.38C0 30.97 1.06 32 2.37 32h27.26c1.31 0 2.37-1.03 2.37-2.31V2.31C32 1.03 30.94 0 29.63 0zM9.5 27.27H4.74V12h4.76v15.27zM7.12 9.94c-1.53 0-2.76-1.24-2.76-2.76 0-1.53 1.24-2.76 2.76-2.76 1.52 0 2.76 1.24 2.76 2.76 0 1.52-1.24 2.76-2.76 2.76zm20.15 17.33h-4.75v-7.43c0-1.77-.03-4.05-2.47-4.05-2.47 0-2.85 1.93-2.85 3.92v7.56h-4.75V12h4.56v2.08h.06c.64-1.2 2.18-2.47 4.49-2.47 4.8 0 5.69 3.16 5.69 7.27v8.39z"/>
</svg>
